<svg version="1.1" xmlns="http://www.w3.org/2000/svg" xmlns:xlink="http://www.w3.org/1999/xlink" width="34.47276" height="34.47276" viewBox="0,0,34.47276,34.47276"><g transform="translate(-222.76362,-162.76362)"><g data-paper-data="{&quot;isPaintingLayer&quot;:true}" fill-rule="nonzero" stroke-linejoin="miter" stroke-miterlimit="10" stroke-dasharray="" stroke-dashoffset="0" style="mix-blend-mode: normal"><path d="M223.76362,180c0,-8.9671 7.26927,-16.23638 16.23638,-16.23638c8.9671,0 16.23638,7.26927 16.23638,16.23638c0,8.9671 -7.26927,16.23638 -16.23638,16.23638c-8.9671,0 -16.23638,-7.26927 -16.23638,-16.23638z" fill="#537ccf" stroke="#355085" stroke-width="2" stroke-linecap="butt"/><text transform="translate(238.49058,176.47961) scale(0.11966,0.11966)" font-size="40" xml:space="preserve" fill="#355085" fill-rule="nonzero" stroke="#355085" stroke-width="2" stroke-linecap="butt" stroke-linejoin="miter" stroke-miterlimit="10" stroke-dasharray="" stroke-dashoffset="0" font-family="Serif" font-weight="normal" text-anchor="start" style="mix-blend-mode: normal"><tspan x="0" dy="0">speed</tspan></text><text transform="translate(241.3778,185.10272) scale(0.22712,0.22712)" font-size="40" xml:space="preserve" fill="#355085" fill-rule="nonzero" stroke="#355085" stroke-width="2" stroke-linecap="butt" stroke-linejoin="miter" stroke-miterlimit="10" stroke-dasharray="" stroke-dashoffset="0" font-family="Serif" font-weight="normal" text-anchor="start" style="mix-blend-mode: normal"><tspan x="0" dy="0">+</tspan></text><path d="M231.21431,177.72619l1.47235,-3.84411l2.36985,-0.42778l-1.1911,4.53548l2.5715,1.77829l-1.3521,3.13241l2.36293,3.64522l-4.59933,-2.07816l0.25337,-3.50773l-2.49031,-1.48405z" fill="none" stroke="#355085" stroke-width="1" stroke-linecap="round"/></g></g></svg>