<svg version="1.1" xmlns="http://www.w3.org/2000/svg" xmlns:xlink="http://www.w3.org/1999/xlink" width="58.1776" height="58.1776" viewBox="0,0,58.1776,58.1776"><g transform="translate(-210.9112,-150.9112)"><g data-paper-data="{&quot;isPaintingLayer&quot;:true}" fill-rule="nonzero" stroke="#000000" stroke-width="2" stroke-linecap="butt" stroke-linejoin="miter" stroke-miterlimit="10" stroke-dasharray="" stroke-dashoffset="0" style="mix-blend-mode: normal"><path d="M211.9112,180c0,-15.51302 12.57578,-28.0888 28.0888,-28.0888c15.51302,0 28.0888,12.57578 28.0888,28.0888c0,15.51302 -12.57578,28.0888 -28.0888,28.0888c-15.51302,0 -28.0888,-12.57578 -28.0888,-28.0888z" fill="#d1f4ff"/><path d="M251.72733,171.61204c4.66595,0.12543 8.34677,4.00961 8.22134,8.67555c-0.12543,4.66595 -4.00961,8.34677 -8.67556,8.22134c-4.66595,-0.12543 -8.34677,-4.00961 -8.22134,-8.67556c0.12543,-4.66595 4.00961,-8.34677 8.67555,-8.22134z" fill="#9be8ff"/><path d="M227.63377,165.99109c7.54786,0.2029 13.50212,6.48613 13.29922,14.03399c-0.2029,7.54786 -6.48613,13.50212 -14.03398,13.29922c-7.54786,-0.2029 -7.04155,-6.31246 -6.83865,-13.86031c0.2029,-7.54786 0.02555,-13.67579 7.57341,-13.47289z" fill="#9be8ff"/></g></g></svg>