<svg version="1.1" xmlns="http://www.w3.org/2000/svg" xmlns:xlink="http://www.w3.org/1999/xlink" width="34.47276" height="34.47276" viewBox="0,0,34.47276,34.47276"><g transform="translate(-222.76362,-162.76362)"><g data-paper-data="{&quot;isPaintingLayer&quot;:true}" fill-rule="nonzero" stroke="#203e19" stroke-linecap="butt" stroke-linejoin="miter" stroke-miterlimit="10" stroke-dasharray="" stroke-dashoffset="0" style="mix-blend-mode: normal"><path d="M223.76362,180c0,-8.9671 7.26927,-16.23638 16.23638,-16.23638c8.9671,0 16.23638,7.26927 16.23638,16.23638c0,8.9671 -7.26927,16.23638 -16.23638,16.23638c-8.9671,0 -16.23638,-7.26927 -16.23638,-16.23638z" fill="#69ce52" stroke-width="2"/><path d="M228.83669,184.81165c0,-2.95338 2.39419,-5.34757 5.34757,-5.34757c2.95338,0 5.34757,2.39419 5.34757,5.34757c0,2.95338 -2.39419,3.25048 -5.34757,3.25048c-2.95338,0 -5.34757,-0.2971 -5.34757,-3.25048z" fill="#52a040" stroke-width="1"/><path d="M231.4231,174.69903c0,-1.52495 1.23621,-2.76116 2.76116,-2.76116c1.52495,0 2.76116,1.23621 2.76116,2.76116c0,1.52495 -1.23621,2.76116 -2.76116,2.76116c-1.52495,0 -2.76116,-1.23621 -2.76116,-2.76116z" fill="#52a040" stroke-width="1"/><text transform="translate(239.46838,177.55476) scale(0.11966,0.11966)" font-size="40" xml:space="preserve" fill="#203e19" fill-rule="nonzero" stroke="#203e19" stroke-width="2" stroke-linecap="butt" stroke-linejoin="miter" stroke-miterlimit="10" stroke-dasharray="" stroke-dashoffset="0" font-family="Serif" font-weight="normal" text-anchor="start" style="mix-blend-mode: normal"><tspan x="0" dy="0">health</tspan></text><text transform="translate(242.57657,184.85969) scale(0.22712,0.22712)" font-size="40" xml:space="preserve" fill="#203e19" fill-rule="nonzero" stroke="#203e19" stroke-width="2" stroke-linecap="butt" stroke-linejoin="miter" stroke-miterlimit="10" stroke-dasharray="" stroke-dashoffset="0" font-family="Serif" font-weight="normal" text-anchor="start" style="mix-blend-mode: normal"><tspan x="0" dy="0">+</tspan></text></g></g></svg>