<svg version="1.1" xmlns="http://www.w3.org/2000/svg" xmlns:xlink="http://www.w3.org/1999/xlink" width="696" height="412" viewBox="0,0,696,412"><g transform="translate(27,26)"><g data-paper-data="{&quot;isPaintingLayer&quot;:true}" fill="none" fill-rule="nonzero" stroke="#000000" stroke-width="3" stroke-linecap="butt" stroke-linejoin="miter" stroke-miterlimit="10" stroke-dasharray="" stroke-dashoffset="0" style="mix-blend-mode: normal"><path d="M306.5,-11c0,-7.45584 6.04415,-13.5 13.5,-13.5c7.45585,0 13.5,6.04416 13.5,13.5c0,7.45585 -6.04415,13.5 -13.5,13.5c-7.45585,0 -13.5,-6.04415 -13.5,-13.5z"/><path d="M306.5,371c0,-7.45585 6.04415,-13.5 13.5,-13.5c7.45585,0 13.5,6.04415 13.5,13.5c0,7.45585 -6.04415,13.5 -13.5,13.5c-7.45585,0 -13.5,-6.04415 -13.5,-13.5z"/><path d="M-25.5,180c0,-7.45585 6.04416,-13.5 13.5,-13.5c7.45585,0 13.5,6.04415 13.5,13.5c0,7.45585 -6.04415,13.5 -13.5,13.5c-7.45584,0 -13.5,-6.04415 -13.5,-13.5z"/><path d="M640.5,180c0,-7.45585 6.04416,-13.5 13.5,-13.5c7.45584,0 13.5,6.04415 13.5,13.5c0,7.45585 -6.04416,13.5 -13.5,13.5c-7.45584,0 -13.5,-6.04415 -13.5,-13.5z"/></g></g></svg>