<svg version="1.1" xmlns="http://www.w3.org/2000/svg" xmlns:xlink="http://www.w3.org/1999/xlink" width="58.1776" height="58.1776" viewBox="0,0,58.1776,58.1776"><g transform="translate(-210.9112,-150.9112)"><g data-paper-data="{&quot;isPaintingLayer&quot;:true}" fill-rule="nonzero" stroke="#000000" stroke-width="2" stroke-linecap="butt" stroke-linejoin="miter" stroke-miterlimit="10" stroke-dasharray="" stroke-dashoffset="0" style="mix-blend-mode: normal"><path d="M240,208.0888c-15.51301,0 -28.0888,-12.57578 -28.0888,-28.0888c0,-15.51301 12.57578,-28.0888 28.0888,-28.0888c15.51301,0 28.0888,12.57578 28.0888,28.0888c0,15.51301 -12.57578,28.0888 -28.0888,28.0888z" data-paper-data="{&quot;index&quot;:null}" fill="#8c8181"/><path d="M236.94822,179.83338c0.12543,4.66595 -3.55539,8.55013 -8.22134,8.67556c-4.66595,0.12543 -8.55012,-3.5554 -8.67555,-8.22135c-0.12543,-4.66595 3.55539,-8.55012 8.22134,-8.67555c4.66595,-0.12543 8.55013,3.55538 8.67556,8.22133z" data-paper-data="{&quot;index&quot;:null}" fill="#8c3434"/><path d="M259.93964,179.46399c0.2029,7.54785 0.7092,13.65741 -6.83865,13.86031c-7.54785,0.2029 -13.83108,-5.75136 -14.03398,-13.29922c-0.2029,-7.54785 5.75136,-13.83109 13.29922,-14.03399c7.54785,-0.2029 7.37051,5.92504 7.57341,13.47289z" data-paper-data="{&quot;index&quot;:null}" fill="#8c3434"/></g></g></svg>